<svg xmlns="http://www.w3.org/2000/svg" width="200" height="200" viewBox="0 0 200 200">
  <!-- QR Code Background -->
  <rect width="200" height="200" fill="white"/>
  
  <!-- QR Code Pattern - Simplified representation -->
  <!-- Position Detection Patterns -->
  <!-- Top-left -->
  <rect x="20" y="20" width="40" height="40" fill="black"/>
  <rect x="30" y="30" width="20" height="20" fill="white"/>
  <rect x="35" y="35" width="10" height="10" fill="black"/>
  
  <!-- Top-right -->
  <rect x="140" y="20" width="40" height="40" fill="black"/>
  <rect x="150" y="30" width="20" height="20" fill="white"/>
  <rect x="155" y="35" width="10" height="10" fill="black"/>
  
  <!-- Bottom-left -->
  <rect x="20" y="140" width="40" height="40" fill="black"/>
  <rect x="30" y="150" width="20" height="20" fill="white"/>
  <rect x="35" y="155" width="10" height="10" fill="black"/>
  
  <!-- QR Code Data Modules (simplified pattern) -->
  <rect x="80" y="20" width="10" height="10" fill="black"/>
  <rect x="100" y="20" width="10" height="10" fill="black"/>
  <rect x="120" y="20" width="10" height="10" fill="black"/>
  
  <rect x="20" y="80" width="10" height="10" fill="black"/>
  <rect x="40" y="80" width="10" height="10" fill="black"/>
  <rect x="60" y="80" width="10" height="10" fill="black"/>
  <rect x="90" y="80" width="10" height="10" fill="black"/>
  <rect x="110" y="80" width="10" height="10" fill="black"/>
  <rect x="130" y="80" width="10" height="10" fill="black"/>
  <rect x="150" y="80" width="10" height="10" fill="black"/>
  <rect x="170" y="80" width="10" height="10" fill="black"/>
  
  <rect x="20" y="100" width="10" height="10" fill="black"/>
  <rect x="50" y="100" width="10" height="10" fill="black"/>
  <rect x="70" y="100" width="10" height="10" fill="black"/>
  <rect x="100" y="100" width="10" height="10" fill="black"/>
  <rect x="120" y="100" width="10" height="10" fill="black"/>
  <rect x="140" y="100" width="10" height="10" fill="black"/>
  <rect x="170" y="100" width="10" height="10" fill="black"/>
  
  <rect x="80" y="120" width="10" height="10" fill="black"/>
  <rect x="100" y="120" width="10" height="10" fill="black"/>
  <rect x="120" y="120" width="10" height="10" fill="black"/>
  <rect x="140" y="120" width="10" height="10" fill="black"/>
  <rect x="160" y="120" width="10" height="10" fill="black"/>
  
  <rect x="80" y="140" width="10" height="10" fill="black"/>
  <rect x="100" y="140" width="10" height="10" fill="black"/>
  <rect x="120" y="140" width="10" height="10" fill="black"/>
  <rect x="140" y="140" width="10" height="10" fill="black"/>
  <rect x="160" y="140" width="10" height="10" fill="black"/>
  
  <rect x="80" y="160" width="10" height="10" fill="black"/>
  <rect x="100" y="160" width="10" height="10" fill="black"/>
  <rect x="120" y="160" width="10" height="10" fill="black"/>
  <rect x="140" y="160" width="10" height="10" fill="black"/>
  <rect x="160" y="160" width="10" height="10" fill="black"/>
  
  <rect x="80" y="180" width="10" height="10" fill="black"/>
  <rect x="100" y="180" width="10" height="10" fill="black"/>
  <rect x="120" y="180" width="10" height="10" fill="black"/>
  <rect x="140" y="180" width="10" height="10" fill="black"/>
  <rect x="160" y="180" width="10" height="10" fill="black"/>
  
  <!-- Additional random modules to make it look more like a QR code -->
  <rect x="30" y="50" width="10" height="10" fill="black"/>
  <rect x="50" y="50" width="10" height="10" fill="black"/>
  <rect x="70" y="50" width="10" height="10" fill="black"/>
  <rect x="90" y="50" width="10" height="10" fill="black"/>
  <rect x="110" y="50" width="10" height="10" fill="black"/>
  <rect x="130" y="50" width="10" height="10" fill="black"/>
  <rect x="150" y="50" width="10" height="10" fill="black"/>
  <rect x="170" y="50" width="10" height="10" fill="black"/>
  
  <rect x="40" y="60" width="10" height="10" fill="black"/>
  <rect x="60" y="60" width="10" height="10" fill="black"/>
  <rect x="80" y="60" width="10" height="10" fill="black"/>
  <rect x="100" y="60" width="10" height="10" fill="black"/>
  <rect x="120" y="60" width="10" height="10" fill="black"/>
  <rect x="140" y="60" width="10" height="10" fill="black"/>
  <rect x="160" y="60" width="10" height="10" fill="black"/>
</svg>